# xmcd
#
# Track frame offsets: 
#        150
#        7587
#        20973
#        36681
#        38362
#        57633
#        82204
#        100488
#        101985
#        112887
#        125451
#        141426
#        161564
#        174000
#        177977
#        192443
#        209022
#        236520
#
# Disc length: 3550 seconds
#
# Revision: 0
# Processed by: cddbd v1.5.2PL0 Copyright (c) Steve Scherf et al.
# Submitted via: ExactAudioCopyFreeDBPlugin 1.0
#
DISCID=020ddc12
DTITLE=Keyza Soze - Der Komponist
DYEAR=2007
DGENRE=Rap
TTITLE0=Intro
TTITLE1=Flagge
TTITLE2=Ich leb noch
TTITLE3=Nur die Zukunft zählt (Skit)
TTITLE4=Nur die Zukunft zählt
TTITLE5=Der Komponist
TTITLE6=Rapmachine
TTITLE7=Vor dem Club (Skit)
TTITLE8=Kein Geld
TTITLE9=Hand aufs Herz
TTITLE10=Talent
TTITLE11=Land der Träume
TTITLE12=Das Leben
TTITLE13=Das Muster (Skit)
TTITLE14=Lang lebe Westberlin
TTITLE15=Fantasie
TTITLE16=Die Erlöser
TTITLE17=Cd-Extra
EXTD=
EXTT0=
EXTT1=
EXTT2=
EXTT3=
EXTT4=
EXTT5=
EXTT6=
EXTT7=
EXTT8=
EXTT9=
EXTT10=
EXTT11=
EXTT12=
EXTT13=
EXTT14=
EXTT15=
EXTT16=
EXTT17=
PLAYORDER=
